<svg xmlns="http://www.w3.org/2000/svg" xmlns:xlink="http://www.w3.org/1999/xlink" width="512" height="512" version="1.1" viewBox="0 0 512 512"><title>Fake_logo</title><desc>Created with Sketch.</desc><g id="Page-1" fill="none" fill-rule="evenodd" stroke="none" stroke-width="1"><g id="Fake_logo"><circle id="Oval" cx="256" cy="256" r="256" fill="#EB6400"/><g id="round-blur_on-24px" transform="translate(51.200000, 51.200000)"><polygon id="Path" points="0 0 409.6 0 409.6 409.6 0 409.6"/><path id="Shape" fill="#FFF" fill-rule="nonzero" d="M102.4,221.866667 C93.0133333,221.866667 85.3333333,229.546667 85.3333333,238.933333 C85.3333333,248.32 93.0133333,256 102.4,256 C111.786667,256 119.466667,248.32 119.466667,238.933333 C119.466667,229.546667 111.786667,221.866667 102.4,221.866667 Z M102.4,290.133333 C93.0133333,290.133333 85.3333333,297.813333 85.3333333,307.2 C85.3333333,316.586667 93.0133333,324.266667 102.4,324.266667 C111.786667,324.266667 119.466667,316.586667 119.466667,307.2 C119.466667,297.813333 111.786667,290.133333 102.4,290.133333 Z M102.4,153.6 C93.0133333,153.6 85.3333333,161.28 85.3333333,170.666667 C85.3333333,180.053333 93.0133333,187.733333 102.4,187.733333 C111.786667,187.733333 119.466667,180.053333 119.466667,170.666667 C119.466667,161.28 111.786667,153.6 102.4,153.6 Z M51.2,162.133333 C46.4213333,162.133333 42.6666667,165.888 42.6666667,170.666667 C42.6666667,175.445333 46.4213333,179.2 51.2,179.2 C55.9786667,179.2 59.7333333,175.445333 59.7333333,170.666667 C59.7333333,165.888 55.9786667,162.133333 51.2,162.133333 Z M102.4,85.3333333 C93.0133333,85.3333333 85.3333333,93.0133333 85.3333333,102.4 C85.3333333,111.786667 93.0133333,119.466667 102.4,119.466667 C111.786667,119.466667 119.466667,111.786667 119.466667,102.4 C119.466667,93.0133333 111.786667,85.3333333 102.4,85.3333333 Z M358.4,179.2 C363.178667,179.2 366.933333,175.445333 366.933333,170.666667 C366.933333,165.888 363.178667,162.133333 358.4,162.133333 C353.621333,162.133333 349.866667,165.888 349.866667,170.666667 C349.866667,175.445333 353.621333,179.2 358.4,179.2 Z M238.933333,119.466667 C248.32,119.466667 256,111.786667 256,102.4 C256,93.0133333 248.32,85.3333333 238.933333,85.3333333 C229.546667,85.3333333 221.866667,93.0133333 221.866667,102.4 C221.866667,111.786667 229.546667,119.466667 238.933333,119.466667 Z M238.933333,59.7333333 C243.712,59.7333333 247.466667,55.9786667 247.466667,51.2 C247.466667,46.4213333 243.712,42.6666667 238.933333,42.6666667 C234.154667,42.6666667 230.4,46.4213333 230.4,51.2 C230.4,55.9786667 234.154667,59.7333333 238.933333,59.7333333 Z M51.2,230.4 C46.4213333,230.4 42.6666667,234.154667 42.6666667,238.933333 C42.6666667,243.712 46.4213333,247.466667 51.2,247.466667 C55.9786667,247.466667 59.7333333,243.712 59.7333333,238.933333 C59.7333333,234.154667 55.9786667,230.4 51.2,230.4 Z M170.666667,349.866667 C165.888,349.866667 162.133333,353.621333 162.133333,358.4 C162.133333,363.178667 165.888,366.933333 170.666667,366.933333 C175.445333,366.933333 179.2,363.178667 179.2,358.4 C179.2,353.621333 175.445333,349.866667 170.666667,349.866667 Z M170.666667,59.7333333 C175.445333,59.7333333 179.2,55.9786667 179.2,51.2 C179.2,46.4213333 175.445333,42.6666667 170.666667,42.6666667 C165.888,42.6666667 162.133333,46.4213333 162.133333,51.2 C162.133333,55.9786667 165.888,59.7333333 170.666667,59.7333333 Z M170.666667,119.466667 C180.053333,119.466667 187.733333,111.786667 187.733333,102.4 C187.733333,93.0133333 180.053333,85.3333333 170.666667,85.3333333 C161.28,85.3333333 153.6,93.0133333 153.6,102.4 C153.6,111.786667 161.28,119.466667 170.666667,119.466667 Z M170.666667,213.333333 C156.501333,213.333333 145.066667,224.768 145.066667,238.933333 C145.066667,253.098667 156.501333,264.533333 170.666667,264.533333 C184.832,264.533333 196.266667,253.098667 196.266667,238.933333 C196.266667,224.768 184.832,213.333333 170.666667,213.333333 Z M307.2,221.866667 C297.813333,221.866667 290.133333,229.546667 290.133333,238.933333 C290.133333,248.32 297.813333,256 307.2,256 C316.586667,256 324.266667,248.32 324.266667,238.933333 C324.266667,229.546667 316.586667,221.866667 307.2,221.866667 Z M307.2,290.133333 C297.813333,290.133333 290.133333,297.813333 290.133333,307.2 C290.133333,316.586667 297.813333,324.266667 307.2,324.266667 C316.586667,324.266667 324.266667,316.586667 324.266667,307.2 C324.266667,297.813333 316.586667,290.133333 307.2,290.133333 Z M307.2,153.6 C297.813333,153.6 290.133333,161.28 290.133333,170.666667 C290.133333,180.053333 297.813333,187.733333 307.2,187.733333 C316.586667,187.733333 324.266667,180.053333 324.266667,170.666667 C324.266667,161.28 316.586667,153.6 307.2,153.6 Z M307.2,85.3333333 C297.813333,85.3333333 290.133333,93.0133333 290.133333,102.4 C290.133333,111.786667 297.813333,119.466667 307.2,119.466667 C316.586667,119.466667 324.266667,111.786667 324.266667,102.4 C324.266667,93.0133333 316.586667,85.3333333 307.2,85.3333333 Z M358.4,230.4 C353.621333,230.4 349.866667,234.154667 349.866667,238.933333 C349.866667,243.712 353.621333,247.466667 358.4,247.466667 C363.178667,247.466667 366.933333,243.712 366.933333,238.933333 C366.933333,234.154667 363.178667,230.4 358.4,230.4 Z M238.933333,290.133333 C229.546667,290.133333 221.866667,297.813333 221.866667,307.2 C221.866667,316.586667 229.546667,324.266667 238.933333,324.266667 C248.32,324.266667 256,316.586667 256,307.2 C256,297.813333 248.32,290.133333 238.933333,290.133333 Z M238.933333,349.866667 C234.154667,349.866667 230.4,353.621333 230.4,358.4 C230.4,363.178667 234.154667,366.933333 238.933333,366.933333 C243.712,366.933333 247.466667,363.178667 247.466667,358.4 C247.466667,353.621333 243.712,349.866667 238.933333,349.866667 Z M170.666667,145.066667 C156.501333,145.066667 145.066667,156.501333 145.066667,170.666667 C145.066667,184.832 156.501333,196.266667 170.666667,196.266667 C184.832,196.266667 196.266667,184.832 196.266667,170.666667 C196.266667,156.501333 184.832,145.066667 170.666667,145.066667 Z M170.666667,290.133333 C161.28,290.133333 153.6,297.813333 153.6,307.2 C153.6,316.586667 161.28,324.266667 170.666667,324.266667 C180.053333,324.266667 187.733333,316.586667 187.733333,307.2 C187.733333,297.813333 180.053333,290.133333 170.666667,290.133333 Z M238.933333,213.333333 C224.768,213.333333 213.333333,224.768 213.333333,238.933333 C213.333333,253.098667 224.768,264.533333 238.933333,264.533333 C253.098667,264.533333 264.533333,253.098667 264.533333,238.933333 C264.533333,224.768 253.098667,213.333333 238.933333,213.333333 Z M238.933333,145.066667 C224.768,145.066667 213.333333,156.501333 213.333333,170.666667 C213.333333,184.832 224.768,196.266667 238.933333,196.266667 C253.098667,196.266667 264.533333,184.832 264.533333,170.666667 C264.533333,156.501333 253.098667,145.066667 238.933333,145.066667 Z"/></g></g></g></svg>