<?xml version="1.0" encoding="UTF-8"?>
  <svg xmlns="http://www.w3.org/2000/svg" version="1.1" id="IconsRepoEditor" width="16px" height="16px" viewBox="-36.97 -36.97 443.69 443.69">
    <g>
      <path fill="#a94000" d="M328.646,130.413h10.773l30.328-59.871l-23.332-27.688h-16.813V22.696h11.988c2.127,0,3.852-1.727,3.852-3.854 c0-2.127-1.725-3.852-3.852-3.852h-30.497c-2.128,0-3.853,1.725-3.853,3.852c0,2.127,1.725,3.854,3.853,3.854h11.988v20.158h-72.172 l-23.333,27.688l30.328,59.871h10.773v64.029h-97.016v-32.5H36.334v32.5H0v160.314h45.664v-79.982h57.666v79.982H360V194.442 h-31.354V130.413z M267.974,115.249l-14.521-29.543h28.15v29.543H267.974z M107.33,241.108H29.996v-23.332h77.334V241.108z M199.33,241.108h-77.334v-23.332h77.334V241.108z M291.33,241.108h-77.334v-23.332h77.334V241.108z M309.404,115.249h-21.482 V85.706h21.482V115.249z M315.723,85.706h28.152l-14.522,29.543h-13.631V85.706z"></path>
    </g>
  </svg>